<?xml version="1.0" encoding="UTF-8" standalone="no"?>
<svg
   xmlns:dc="http://purl.org/dc/elements/1.1/"
   xmlns:cc="http://creativecommons.org/ns#"
   xmlns:rdf="http://www.w3.org/1999/02/22-rdf-syntax-ns#"
   xmlns:svg="http://www.w3.org/2000/svg"
   xmlns="http://www.w3.org/2000/svg"
   xmlns:sodipodi="http://sodipodi.sourceforge.net/DTD/sodipodi-0.dtd"
   xmlns:inkscape="http://www.inkscape.org/namespaces/inkscape"
   version="1.1"
   id="Layer_1"
   x="0px"
   y="0px"
   viewBox="0 0 491.68558 491.52496"
   xml:space="preserve"
   sodipodi:docname="slack-app-in-tab-logo.svg"
   width="491.68558"
   height="491.52496"
   inkscape:version="1.0.1 (3bc2e813f5, 2020-09-07)"
   inkscape:export-filename="/home/louisremi/Workspace/slack-app-in-tab/slack-app-in-ab-logo-128x128.png"
   inkscape:export-xdpi="24.99"
   inkscape:export-ydpi="24.99"><metadata
   id="metadata47"><rdf:RDF><cc:Work
       rdf:about=""><dc:format>image/svg+xml</dc:format><dc:type
         rdf:resource="http://purl.org/dc/dcmitype/StillImage" /><dc:title /></cc:Work></rdf:RDF></metadata><defs
   id="defs45">
	
	
	
	
	

		
		
	
		
		
	
		
		
	
		
		
	
		
		
	
		
		
	
		
		
	
		
		
	
		
		
	
		
		
	
		
		
	
		
		
	
		
		
	
		
		
	
		
		
	
		
		
	</defs><sodipodi:namedview
   pagecolor="#ffffff"
   bordercolor="#666666"
   borderopacity="1"
   objecttolerance="10"
   gridtolerance="10"
   guidetolerance="10"
   inkscape:pageopacity="0"
   inkscape:pageshadow="2"
   inkscape:window-width="1848"
   inkscape:window-height="1016"
   id="namedview43"
   showgrid="false"
   fit-margin-top="50"
   fit-margin-left="50"
   fit-margin-right="50"
   fit-margin-bottom="50"
   inkscape:zoom="0.5371732"
   inkscape:cx="272.46805"
   inkscape:cy="6.8300147"
   inkscape:window-x="72"
   inkscape:window-y="27"
   inkscape:window-maximized="1"
   inkscape:current-layer="Layer_1"
   inkscape:document-rotation="0" />
<style
   type="text/css"
   id="style2">
	.st0{fill:#FFFFFF;}
	.st1{fill:#E01E5A;}
	.st2{fill:#36C5F0;}
	.st3{fill:#2EB67D;}
	.st4{fill:#ECB22E;}
</style>

<path
   class="st1"
   d="m 252.68558,347.02495 c 0,-14.91 12.09,-27 27,-27 14.91,0 27,12.09 27,27 v 67.5 c 0,14.91 -12.09,27 -27,27 -14.91,0 -27,-12.09 -27,-27 z"
   id="path932"
   style="fill:#2eb67d;fill-opacity:1" /><path
   class="st2"
   d="m 279.68558,252.52495 c 14.91,0 27,12.09 27,27 0,14.91 -12.09,27 -27,27 h -67.5 c -14.91,0 -27,-12.09 -27,-27 0,-14.91 12.09,-27 27,-27 z"
   id="path938"
   style="fill:#2eb67d;fill-opacity:1" /><path
   class="st3"
   d="m 387.68558,279.52495 c 0,-14.91 12.09,-27 27,-27 14.91,0 27,12.09 27,27 0,14.91 -12.09,27 -27,27 h -27 z"
   id="path942"
   style="fill:#2eb67d;fill-opacity:1" /><path
   class="st4"
   d="m 347.15121,239 c -14.91,0 -27,-12.09 -27,-27 0,-14.91 12.09,-27 27,-27 h 67.5 c 14.91,0 27,12.09 27,27 0,14.91 -12.09,27 -27,27 z"
   id="path976"
   style="fill:#ecb22e;fill-opacity:1;stroke:none;stroke-opacity:1" /><path
   class="st3"
   d="m 374.18558,279.52495 c 0,14.91 -12.09,27 -27,27 -14.91,0 -27,-12.09 -27,-27 v -67.5 c 0,-14.91 12.09,-27 27,-27 14.91,0 27,12.09 27,27 z"
   id="path944"
   style="fill:#2eb67d;fill-opacity:1" /><path
   class="st4"
   d="m 347.18558,387.52495 c 14.91,0 27,12.09 27,27 0,14.91 -12.09,27 -27,27 -14.91,0 -27,-12.09 -27,-27 v -27 z"
   id="path948"
   style="fill:#2eb67d;fill-opacity:1" /><path
   class="st4"
   d="m 347.18558,374.02495 c -14.91,0 -27,-12.09 -27,-27 0,-14.91 12.09,-27 27,-27 h 67.5 c 14.91,0 27,12.09 27,27 0,14.91 -12.09,27 -27,27 z"
   id="path950"
   style="fill:#2eb67d;fill-opacity:1" /><path
   class="st1"
   d="m 104,346.77713 c 0,14.91001 -12.09,27 -27,27 -14.91,0 -27,-12.08999 -27,-27 0,-14.91 12.09,-27 27,-27 h 27 z"
   id="path904"
   style="fill:#36c5f0;fill-opacity:1" /><path
   class="st1"
   d="m 117.5,346.77713 c 0,-14.91 12.09,-27 27,-27 14.91,0 27,12.09 27,27 v 67.5 c 0,14.91001 -12.09,27 -27,27 -14.91,0 -27,-12.08999 -27,-27 z"
   id="path906"
   style="fill:#36c5f0;fill-opacity:1" /><path
   class="st3"
   d="m 239,279.27713 c 0,14.91001 -12.09,27 -27,27 -14.91,0 -27,-12.08999 -27,-27 v -67.5 c 0,-14.91 12.09,-27 27,-27 14.91,0 27,12.09 27,27 z"
   id="path918"
   style="fill:#36c5f0;fill-opacity:1" /><path
   class="st4"
   d="m 212,387.27713 c 14.91,0 27,12.09 27,27 0,14.91001 -12.09,27 -27,27 -14.91,0 -27,-12.08999 -27,-27 v -27 z"
   id="path922"
   style="fill:#36c5f0;fill-opacity:1" /><path
   class="st4"
   d="m 212,373.77713 c -14.91,0 -27,-12.08999 -27,-27 0,-14.91 12.09,-27 27,-27 h 67.5 c 14.91,0 27,12.09 27,27 0,14.91001 -12.09,27 -27,27 z"
   id="path924"
   style="fill:#36c5f0;fill-opacity:1" /><path
   class="st1"
   d="m 104.00336,212.03359 c 0,14.91 -12.09,27 -27,27 -14.91,0 -27,-12.09 -27,-27 0,-14.91 12.09,-27 27,-27 h 27 z"
   id="path16"
   style="fill:#e01e5a;fill-opacity:1" /><path
   class="st2"
   d="m 144.5,252.27713 c 14.91,0 27,12.09 27,27 0,14.91001 -12.09,27 -27,27 H 77 c -14.91,0 -27,-12.08999 -27,-27 0,-14.91 12.09,-27 27,-27 z"
   id="path912"
   style="fill:#36c5f0;fill-opacity:1" /><path
   class="st1"
   d="m 117.50336,212.03359 c 0,-14.91 12.09,-27 27,-27 14.91,0 27,12.09 27,27 v 67.5 c 0,14.91 -12.09,27 -27,27 -14.91,0 -27,-12.09 -27,-27 z"
   id="path18"
   style="fill:#e01e5a;fill-opacity:1" /><path
   class="st2"
   d="m 144.50336,104.03359 c -14.91,0 -27,-12.09 -27,-27 0,-14.91 12.09,-27 27,-27 14.91,0 27,12.09 27,27 v 27 z"
   id="path22"
   style="fill:#e01e5a;fill-opacity:1" /><path
   class="st2"
   d="m 144.50336,117.53359 c 14.91,0 27,12.09 27,27 0,14.91 -12.09,27 -27,27 h -67.5 c -14.91,0 -27,-12.09 -27,-27 0,-14.91 12.09,-27 27,-27 z"
   id="path24"
   style="fill:#e01e5a;fill-opacity:1" /><path
   class="st3"
   d="m 239.00336,144.53359 c 0,14.91 -12.09,27 -27,27 -14.91,0 -27,-12.09 -27,-27 v -67.5 c 0,-14.91 12.09,-27 27,-27 14.91,0 27,12.09 27,27 z"
   id="path30"
   style="fill:#e01e5a;fill-opacity:1" /><path
   class="st4"
   d="m 212.00336,252.53359 c 14.91,0 27,12.09 27,27 0,14.91 -12.09,27 -27,27 -14.91,0 -27,-12.09 -27,-27 v -27 z"
   id="path34"
   style="fill:#e01e5a;fill-opacity:1" /><path
   class="st4"
   d="m 212.00336,239.03359 c -14.91,0 -27,-12.09 -27,-27 0,-14.91 12.09,-27 27,-27 h 67.5 c 14.91,0 27,12.09 27,27 0,14.91 -12.09,27 -27,27 z"
   id="path36"
   style="fill:#e01e5a;fill-opacity:1" /><path
   class="st1"
   d="m 239.15121,212 c 0,14.91 -12.09,27 -27,27 -14.91,0 -27,-12.09 -27,-27 0,-14.91 12.09,-27 27,-27 h 27 z"
   id="path956"
   style="fill:#ecb22e;fill-opacity:1;stroke:none;stroke-opacity:1" /><path
   class="st1"
   d="m 252.65121,212 c 0,-14.91 12.09,-27 27,-27 14.91,0 27,12.09 27,27 v 67.5 c 0,14.91 -12.09,27 -27,27 -14.91,0 -27,-12.09 -27,-27 z"
   id="path958"
   style="fill:#ecb22e;fill-opacity:1;stroke:none;stroke-opacity:1" /><path
   class="st2"
   d="m 279.65121,104 c -14.91,0 -27,-12.09 -27,-27 0,-14.91 12.09,-27 27,-27 14.91,0 27,12.09 27,27 v 27 z"
   id="path962"
   style="fill:#ecb22e;fill-opacity:1;stroke:none;stroke-opacity:1" /><path
   class="st2"
   d="m 279.65121,117.5 c 14.91,0 27,12.09 27,27 0,14.91 -12.09,27 -27,27 h -67.5 c -14.91,0 -27,-12.09 -27,-27 0,-14.91 12.09,-27 27,-27 z"
   id="path964"
   style="fill:#ecb22e;fill-opacity:1;stroke:none;stroke-opacity:1" /><path
   class="st3"
   d="m 387.65121,144.5 c 0,-14.91 12.09,-27 27,-27 14.91,0 27,12.09 27,27 0,14.91 -12.09,27 -27,27 h -27 z"
   id="path968"
   style="fill:#ecb22e;fill-opacity:1;stroke:none;stroke-opacity:1" /><path
   class="st3"
   d="m 374.15121,144.5 c 0,14.91 -12.09,27 -27,27 -14.91,0 -27,-12.09 -27,-27 V 77 c 0,-14.91 12.09,-27 27,-27 14.91,0 27,12.09 27,27 z"
   id="path970"
   style="fill:#ecb22e;fill-opacity:1;stroke:none;stroke-opacity:1" /><path
   class="st4"
   d="m 347.15121,252.5 c 14.91,0 27,12.09 27,27 0,14.91 -12.09,27 -27,27 -14.91,0 -27,-12.09 -27,-27 v -27 z"
   id="path974"
   style="fill:#ecb22e;fill-opacity:1;stroke:none;stroke-opacity:1" /><path
   class="st3"
   d="m 252.5,279.27713 c 0,-14.91 12.09,-27 27,-27 14.91,0 27,12.09 27,27 0,14.91001 -12.09,27 -27,27 h -27 z"
   id="path916"
   style="fill:#36c5f0;fill-opacity:1" /><path
   class="st2"
   d="m 144.5,238.77713 c -14.91,0 -27,-12.08999 -27,-27 0,-14.91 12.09,-27 27,-27 14.91,0 27,12.09 27,27 v 27 z"
   id="path910"
   style="fill:#36c5f0;fill-opacity:1" /><path
   class="st2"
   d="m 279.68558,239.02495 c -14.91,0 -27,-12.09 -27,-27 0,-14.91 12.09,-27 27,-27 14.91,0 27,12.09 27,27 v 27 z"
   id="path936"
   style="fill:#2eb67d;fill-opacity:1" /><path
   class="st1"
   d="m 239.18558,347.02495 c 0,14.91 -12.09,27 -27,27 -14.91,0 -27,-12.09 -27,-27 0,-14.91 12.09,-27 27,-27 h 27 z"
   id="path930"
   style="fill:#2eb67d;fill-opacity:1" /><path
   class="st3"
   d="m 252.50336,144.53359 c 0,-14.91 12.09,-27 27,-27 14.91,0 27,12.09 27,27 0,14.91 -12.09,27 -27,27 h -27 z"
   id="path28"
   style="fill:#e01e5a;fill-opacity:1" /></svg>
